ply
format ascii 1.0
comment Created by Blender 2.78 (sub 0) - www.blender.org, source file: 'ColoredTriangle.blend'
element vertex 200
property float x
property float y
property float z
property float nx
property float ny
property float nz
property uchar red
property uchar green
property uchar blue
element face 108
property list uchar uint vertex_indices
end_header
-0.333333 -1.000000 1.000000 -0.000000 -1.000000 0.000000 34 186 29
-1.000000 -1.000000 0.333333 -0.000000 -1.000000 0.000000 34 186 29
-0.333333 -1.000000 0.333333 -0.000000 -1.000000 0.000000 34 186 29
-0.333334 1.000000 0.333333 0.000000 1.000000 0.000000 34 186 29
-1.000000 1.000000 1.000000 0.000000 1.000000 0.000000 34 186 29
-0.333334 1.000000 1.000000 0.000000 1.000000 0.000000 34 186 29
1.000000 1.000000 0.333334 1.000000 -0.000000 0.000000 8 255 0
1.000000 0.333333 1.000000 1.000000 -0.000000 0.000000 8 255 0
1.000000 0.333333 0.333334 1.000000 -0.000000 0.000000 8 255 0
-0.333334 1.000000 1.000000 -0.000000 0.000000 1.000000 34 186 29
-1.000000 0.333333 1.000000 -0.000000 0.000000 1.000000 34 186 29
-0.333334 0.333333 1.000000 -0.000000 0.000000 1.000000 34 186 29
-1.000000 0.333333 -0.333334 -1.000000 -0.000000 -0.000000 34 186 29
-1.000000 1.000000 -1.000000 -1.000000 -0.000000 -0.000000 34 186 29
-1.000000 0.333333 -1.000000 -1.000000 -0.000000 -0.000000 34 186 29
-0.333333 -0.333333 -1.000000 0.000000 0.000000 -1.000000 34 186 29
-1.000000 -1.000000 -1.000000 0.000000 0.000000 -1.000000 34 186 29
-1.000000 -0.333333 -1.000000 0.000000 0.000000 -1.000000 34 186 29
-0.333333 0.333333 -1.000000 0.000000 0.000000 -1.000000 34 186 29
-1.000000 1.000000 -1.000000 0.000000 0.000000 -1.000000 34 186 29
-0.333333 1.000000 -1.000000 0.000000 0.000000 -1.000000 34 186 29
-0.333333 0.333333 -1.000000 0.000000 0.000000 -1.000000 20 0 255
-1.000000 -0.333333 -1.000000 0.000000 0.000000 -1.000000 20 0 255
-1.000000 0.333333 -1.000000 0.000000 0.000000 -1.000000 20 0 255
1.000000 0.333333 -1.000000 0.000000 0.000000 -1.000000 34 186 29
0.333334 1.000000 -1.000000 0.000000 0.000000 -1.000000 34 186 29
1.000000 1.000000 -0.999999 0.000000 0.000000 -1.000000 34 186 29
0.333334 0.333333 -1.000000 0.000000 0.000000 -1.000000 20 0 255
-0.333333 1.000000 -1.000000 0.000000 0.000000 -1.000000 20 0 255
0.333334 1.000000 -1.000000 0.000000 0.000000 -1.000000 20 0 255
1.000000 -0.333333 -1.000000 0.000000 0.000000 -1.000000 20 0 255
1.000000 0.333333 -1.000000 0.000000 0.000000 -1.000000 20 0 255
0.333333 -0.333333 -1.000000 0.000000 0.000000 -1.000000 252 0 21
-0.333333 0.333333 -1.000000 0.000000 0.000000 -1.000000 252 0 21
0.333334 0.333333 -1.000000 0.000000 0.000000 -1.000000 252 0 21
1.000000 -1.000000 -1.000000 0.000000 0.000000 -1.000000 34 186 29
0.333333 -0.333333 -1.000000 0.000000 0.000000 -1.000000 34 186 29
1.000000 -0.333333 -1.000000 0.000000 0.000000 -1.000000 34 186 29
0.333333 -1.000000 -1.000000 0.000000 0.000000 -1.000000 20 0 255
-0.333333 -0.333333 -1.000000 0.000000 0.000000 -1.000000 20 0 255
0.333333 -0.333333 -1.000000 0.000000 0.000000 -1.000000 20 0 255
-1.000000 -1.000000 -0.333334 -1.000000 -0.000000 -0.000000 34 186 29
-1.000000 -0.333333 -1.000000 -1.000000 -0.000000 -0.000000 34 186 29
-1.000000 -1.000000 -1.000000 -1.000000 -0.000000 -0.000000 34 186 29
-1.000000 -0.333333 -0.333334 -1.000000 -0.000000 -0.000000 20 0 255
-1.000000 0.333333 -1.000000 -1.000000 -0.000000 -0.000000 20 0 255
-1.000000 -0.333333 -1.000000 -1.000000 -0.000000 -0.000000 20 0 255
-1.000000 -0.333333 1.000000 -1.000000 -0.000000 -0.000000 34 186 29
-1.000000 -1.000000 0.333333 -1.000000 -0.000000 -0.000000 34 186 29
-1.000000 -1.000000 1.000000 -1.000000 -0.000000 -0.000000 34 186 29
-1.000000 -1.000000 0.333333 -1.000000 -0.000000 -0.000000 20 0 255
-1.000000 -1.000000 -0.333334 -1.000000 -0.000000 -0.000000 20 0 255
-1.000000 0.333333 1.000000 -1.000000 -0.000000 -0.000000 20 0 255
-1.000000 -0.333333 0.333333 -1.000000 -0.000000 -0.000000 20 0 255
-1.000000 -0.333333 1.000000 -1.000000 -0.000000 -0.000000 20 0 255
-1.000000 0.333333 0.333333 -1.000000 0.000000 -0.000000 252 0 21
-1.000000 -0.333333 -0.333334 -1.000000 0.000000 -0.000000 252 0 21
-1.000000 -0.333333 0.333333 -1.000000 0.000000 -0.000000 252 0 21
-1.000000 1.000000 1.000000 -1.000000 -0.000000 -0.000000 34 186 29
-1.000000 0.333333 0.333333 -1.000000 -0.000000 -0.000000 34 186 29
-1.000000 0.333333 1.000000 -1.000000 -0.000000 -0.000000 34 186 29
-1.000000 0.333333 0.333333 -1.000000 -0.000000 -0.000000 20 0 255
-1.000000 1.000000 -0.333333 -1.000000 -0.000000 -0.000000 20 0 255
-1.000000 0.333333 -0.333334 -1.000000 -0.000000 -0.000000 20 0 255
-0.333334 -0.333333 1.000000 -0.000000 -0.000000 1.000000 34 186 29
-1.000000 -1.000000 1.000000 -0.000000 -0.000000 1.000000 34 186 29
-0.333333 -1.000000 1.000000 -0.000000 -0.000000 1.000000 34 186 29
-0.333334 0.333333 1.000000 -0.000000 -0.000000 1.000000 20 0 255
-1.000000 -0.333333 1.000000 -0.000000 -0.000000 1.000000 20 0 255
-0.333334 -0.333333 1.000000 -0.000000 -0.000000 1.000000 20 0 255
1.000000 -0.333333 1.000000 -0.000000 -0.000000 1.000000 34 186 29
0.333333 -1.000000 1.000000 -0.000000 -0.000000 1.000000 34 186 29
1.000000 -1.000000 1.000000 -0.000000 -0.000000 1.000000 34 186 29
0.333333 -0.333333 1.000000 -0.000000 -0.000000 1.000000 20 0 255
-0.333333 -1.000000 1.000000 -0.000000 -0.000000 1.000000 20 0 255
0.333333 -1.000000 1.000000 -0.000000 -0.000000 1.000000 20 0 255
1.000000 0.333333 1.000000 -0.000000 -0.000000 1.000000 20 0 255
1.000000 -0.333333 1.000000 -0.000000 -0.000000 1.000000 20 0 255
0.333333 0.333333 1.000000 -0.000000 -0.000000 1.000000 252 0 21
-0.333334 -0.333333 1.000000 -0.000000 -0.000000 1.000000 252 0 21
0.333333 -0.333333 1.000000 -0.000000 -0.000000 1.000000 252 0 21
0.999999 1.000000 1.000001 -0.000000 -0.000000 1.000000 34 186 29
0.333333 0.333333 1.000000 -0.000000 -0.000000 1.000000 34 186 29
1.000000 0.333333 1.000000 -0.000000 -0.000000 1.000000 34 186 29
0.333333 1.000000 1.000000 -0.000000 -0.000000 1.000000 20 0 255
0.333333 0.333333 1.000000 -0.000000 -0.000000 1.000000 20 0 255
1.000000 -0.333333 0.333334 1.000000 0.000000 -0.000000 8 255 0
1.000000 -1.000000 1.000000 1.000000 0.000000 -0.000000 8 255 0
1.000000 -1.000000 0.333333 1.000000 0.000000 -0.000000 8 255 0
1.000000 0.333333 0.333334 1.000000 0.000000 0.000000 20 0 255
1.000000 -0.333333 1.000000 1.000000 0.000000 0.000000 20 0 255
1.000000 -0.333333 0.333334 1.000000 0.000000 0.000000 20 0 255
1.000000 -0.333333 -1.000000 1.000000 -0.000000 0.000000 8 255 0
1.000000 -1.000000 -0.333333 1.000000 -0.000000 0.000000 8 255 0
1.000000 -1.000000 -1.000000 1.000000 -0.000000 0.000000 8 255 0
1.000000 -0.333333 -0.333333 1.000000 -0.000000 0.000000 20 0 255
1.000000 -1.000000 0.333333 1.000000 -0.000000 0.000000 20 0 255
1.000000 -1.000000 -0.333333 1.000000 -0.000000 0.000000 20 0 255
1.000000 0.333333 -1.000000 1.000000 -0.000000 0.000000 20 0 255
1.000000 -0.333333 -1.000000 1.000000 -0.000000 0.000000 20 0 255
1.000000 0.333333 -0.333333 1.000000 -0.000000 0.000000 252 0 21
1.000000 -0.333333 0.333334 1.000000 -0.000000 0.000000 252 0 21
1.000000 -0.333333 -0.333333 1.000000 -0.000000 0.000000 252 0 21
1.000000 1.000000 -0.999999 1.000000 -0.000000 0.000000 8 255 0
1.000000 0.333333 -0.333333 1.000000 -0.000000 0.000000 8 255 0
1.000000 0.333333 -1.000000 1.000000 -0.000000 0.000000 8 255 0
1.000000 1.000000 -0.333333 1.000000 -0.000000 0.000000 20 0 255
1.000000 0.333333 -0.333333 1.000000 -0.000000 0.000000 20 0 255
0.333333 1.000000 0.333334 0.000000 1.000000 0.000000 34 186 29
0.999999 1.000000 1.000001 0.000000 1.000000 0.000000 34 186 29
1.000000 1.000000 0.333334 0.000000 1.000000 0.000000 34 186 29
-0.333334 1.000000 0.333333 0.000000 1.000000 0.000000 20 0 255
0.333333 1.000000 1.000000 0.000000 1.000000 0.000000 20 0 255
0.333333 1.000000 0.333334 0.000000 1.000000 0.000000 20 0 255
0.333334 1.000000 -1.000000 0.000000 1.000000 0.000000 34 186 29
1.000000 1.000000 -0.333333 0.000000 1.000000 0.000000 34 186 29
1.000000 1.000000 -0.999999 0.000000 1.000000 0.000000 34 186 29
0.333333 1.000000 -0.333333 0.000000 1.000000 0.000000 20 0 255
1.000000 1.000000 0.333334 0.000000 1.000000 0.000000 20 0 255
1.000000 1.000000 -0.333333 0.000000 1.000000 0.000000 20 0 255
-0.333333 1.000000 -1.000000 0.000000 1.000000 0.000000 20 0 255
0.333334 1.000000 -1.000000 0.000000 1.000000 0.000000 20 0 255
-0.333333 1.000000 -0.333333 0.000000 1.000000 0.000000 252 0 21
0.333333 1.000000 0.333334 0.000000 1.000000 0.000000 252 0 21
0.333333 1.000000 -0.333333 0.000000 1.000000 0.000000 252 0 21
-0.333333 1.000000 -1.000000 0.000000 1.000000 0.000000 34 186 29
-1.000000 1.000000 -0.333333 0.000000 1.000000 0.000000 34 186 29
-0.333333 1.000000 -0.333333 0.000000 1.000000 0.000000 34 186 29
-0.333333 1.000000 -0.333333 0.000000 1.000000 0.000000 20 0 255
-1.000000 1.000000 0.333333 0.000000 1.000000 0.000000 20 0 255
-0.333333 -1.000000 -0.333334 -0.000000 -1.000000 0.000000 34 186 29
-1.000000 -1.000000 -1.000000 -0.000000 -1.000000 0.000000 34 186 29
-0.333333 -1.000000 -1.000000 -0.000000 -1.000000 0.000000 34 186 29
-0.333333 -1.000000 0.333333 -0.000000 -1.000000 0.000000 20 0 255
-1.000000 -1.000000 -0.333334 -0.000000 -1.000000 0.000000 20 0 255
-0.333333 -1.000000 -0.333334 -0.000000 -1.000000 0.000000 20 0 255
1.000000 -1.000000 -1.000000 0.000000 -1.000000 0.000000 34 186 29
0.333333 -1.000000 -0.333333 0.000000 -1.000000 0.000000 34 186 29
0.333333 -1.000000 -1.000000 0.000000 -1.000000 0.000000 34 186 29
0.333333 -1.000000 -1.000000 0.000000 -1.000000 0.000000 20 0 255
-0.333333 -1.000000 -1.000000 0.000000 -1.000000 0.000000 20 0 255
1.000000 -1.000000 -0.333333 0.000000 -1.000000 0.000000 20 0 255
0.333333 -1.000000 0.333333 0.000000 -1.000000 0.000000 20 0 255
0.333333 -1.000000 -0.333333 0.000000 -1.000000 0.000000 20 0 255
0.333333 -1.000000 -0.333333 0.000000 -1.000000 0.000000 252 0 21
-0.333333 -1.000000 0.333333 0.000000 -1.000000 0.000000 252 0 21
-0.333333 -1.000000 -0.333334 0.000000 -1.000000 0.000000 252 0 21
1.000000 -1.000000 0.333333 0.000000 -1.000000 0.000000 34 186 29
0.333333 -1.000000 1.000000 0.000000 -1.000000 0.000000 34 186 29
0.333333 -1.000000 0.333333 0.000000 -1.000000 0.000000 34 186 29
0.333333 -1.000000 1.000000 -0.000000 -1.000000 0.000000 20 0 255
-1.000000 -1.000000 1.000000 0.000000 -1.000000 0.000000 34 186 29
-1.000000 1.000000 0.333333 -0.000000 1.000000 0.000000 34 186 29
1.000000 1.000000 0.333334 1.000000 0.000000 0.000001 8 255 0
0.999999 1.000000 1.000001 1.000000 0.000000 0.000001 8 255 0
1.000000 0.333333 1.000000 1.000000 0.000000 0.000001 8 255 0
-1.000000 1.000000 1.000000 -0.000000 0.000000 1.000000 34 186 29
-1.000000 1.000000 -0.333333 -1.000000 -0.000000 -0.000000 34 186 29
-0.333333 -1.000000 -1.000000 0.000000 0.000000 -1.000000 34 186 29
-1.000000 0.333333 -1.000000 0.000000 0.000000 -1.000000 34 186 29
0.333334 0.333333 -1.000000 0.000000 0.000000 -1.000000 34 186 29
-0.333333 -0.333333 -1.000000 0.000000 0.000000 -1.000000 252 0 21
0.333333 -1.000000 -1.000000 0.000000 0.000000 -1.000000 34 186 29
-0.333333 -1.000000 -1.000000 0.000000 0.000000 -1.000000 20 0 255
-1.000000 -0.333333 -0.333334 -1.000000 -0.000000 -0.000000 34 186 29
-1.000000 -0.333333 0.333333 -1.000000 -0.000000 -0.000000 34 186 29
-1.000000 0.333333 -0.333334 -1.000000 -0.000000 -0.000000 252 0 21
-1.000000 1.000000 0.333333 -1.000000 -0.000000 -0.000000 34 186 29
-1.000000 1.000000 0.333333 -1.000000 -0.000000 -0.000000 20 0 255
-1.000000 -0.333333 1.000000 -0.000000 0.000000 1.000000 34 186 29
-1.000000 0.333333 1.000000 -0.000000 0.000000 1.000000 20 0 255
0.333333 -0.333333 1.000000 -0.000000 -0.000000 1.000000 34 186 29
-0.333334 0.333333 1.000000 -0.000000 -0.000000 1.000000 252 0 21
0.999999 1.000000 1.000001 -0.000001 -0.000000 1.000000 34 186 29
0.333333 1.000000 1.000000 -0.000001 -0.000000 1.000000 34 186 29
0.333333 0.333333 1.000000 -0.000001 -0.000000 1.000000 34 186 29
-0.333334 1.000000 1.000000 -0.000000 0.000000 1.000000 20 0 255
1.000000 -0.333333 1.000000 1.000000 0.000000 0.000000 8 255 0
1.000000 0.333333 1.000000 1.000000 0.000000 0.000000 20 0 255
1.000000 -0.333333 -0.333333 1.000000 -0.000000 0.000000 8 255 0
1.000000 0.333333 0.333334 1.000000 0.000000 0.000000 252 0 21
1.000000 1.000000 -0.999999 1.000000 -0.000000 0.000001 8 255 0
1.000000 1.000000 -0.333333 1.000000 -0.000000 0.000001 8 255 0
1.000000 0.333333 -0.333333 1.000000 -0.000000 0.000001 8 255 0
1.000000 1.000000 -0.333333 1.000000 -0.000000 0.000001 20 0 255
1.000000 1.000000 0.333334 1.000000 -0.000000 0.000001 20 0 255
1.000000 0.333333 0.333334 1.000000 -0.000000 0.000001 20 0 255
0.333333 1.000000 1.000000 0.000000 1.000000 0.000000 34 186 29
-0.333334 1.000000 1.000000 0.000000 1.000000 0.000000 20 0 255
0.333333 1.000000 -0.333333 0.000000 1.000000 0.000000 34 186 29
-0.333334 1.000000 0.333333 0.000000 1.000000 0.000000 252 0 21
-1.000000 1.000000 -1.000000 -0.000000 1.000000 0.000000 34 186 29
-1.000000 1.000000 -0.333333 -0.000000 1.000000 0.000000 20 0 255
-1.000000 -1.000000 -0.333334 0.000000 -1.000000 0.000000 34 186 29
-1.000000 -1.000000 0.333333 0.000000 -1.000000 0.000000 20 0 255
1.000000 -1.000000 -0.333333 0.000000 -1.000000 0.000000 34 186 29
1.000000 -1.000000 0.333333 0.000000 -1.000000 0.000000 20 0 255
0.333333 -1.000000 0.333333 0.000000 -1.000000 0.000000 252 0 21
1.000000 -1.000000 1.000000 0.000000 -1.000000 0.000000 34 186 29
-0.333333 -1.000000 1.000000 0.000000 -1.000000 0.000000 20 0 255
3 0 1 2
3 3 4 5
3 6 7 8
3 9 10 11
3 12 13 14
3 15 16 17
3 18 19 20
3 21 22 23
3 24 25 26
3 27 28 29
3 30 27 31
3 32 33 34
3 35 36 37
3 38 39 40
3 41 42 43
3 44 45 46
3 47 48 49
3 50 44 51
3 52 53 54
3 55 56 57
3 58 59 60
3 61 62 63
3 64 65 66
3 67 68 69
3 70 71 72
3 73 74 75
3 76 73 77
3 78 79 80
3 81 82 83
3 84 67 85
3 86 87 88
3 89 90 91
3 92 93 94
3 95 96 97
3 98 95 99
3 100 101 102
3 103 104 105
3 106 89 107
3 108 109 110
3 111 112 113
3 114 115 116
3 117 118 119
3 120 117 121
3 122 123 124
3 125 126 127
3 128 129 111
3 130 131 132
3 133 134 135
3 136 137 138
3 139 135 140
3 141 142 143
3 144 145 146
3 147 148 149
3 150 133 142
3 0 151 1
3 3 152 4
3 153 154 155
3 9 156 10
3 12 157 13
3 15 158 16
3 18 159 19
3 21 39 22
3 24 160 25
3 27 21 28
3 30 40 27
3 32 161 33
3 35 162 36
3 38 163 39
3 41 164 42
3 44 63 45
3 47 165 48
3 50 53 44
3 52 61 53
3 55 166 56
3 58 167 59
3 61 168 62
3 64 169 65
3 67 170 68
3 70 171 71
3 73 69 74
3 76 85 73
3 78 172 79
3 173 174 175
3 84 176 67
3 86 177 87
3 89 178 90
3 92 179 93
3 95 91 96
3 98 107 95
3 100 180 101
3 181 182 183
3 184 185 186
3 108 187 109
3 111 188 112
3 114 189 115
3 117 113 118
3 120 128 117
3 122 190 123
3 125 191 126
3 128 192 129
3 130 193 131
3 133 194 134
3 136 195 137
3 139 143 135
3 141 196 142
3 144 197 145
3 147 198 148
3 150 199 133
