ply
format ascii 1.0
comment Created by Blender 2.78 (sub 0) - www.blender.org, source file: 'ColoredTriangle.blend'
element vertex 140
property float x
property float y
property float z
property float nx
property float ny
property float nz
property uchar red
property uchar green
property uchar blue
element face 108
property list uchar uint vertex_indices
end_header
-0.333333 -1.000000 1.000000 0.000000 -0.707083 0.707083 34 186 29
-1.000000 -1.000000 0.333333 -0.707083 -0.707083 0.000000 34 186 29
-0.333333 -1.000000 0.333333 0.000000 -1.000000 0.000000 34 186 29
-0.333334 1.000000 0.333333 0.000000 1.000000 0.000000 34 186 29
-1.000000 1.000000 1.000000 -0.577349 0.577349 0.577349 34 186 29
-0.333334 1.000000 1.000000 0.000000 0.707083 0.707083 34 186 29
1.000000 1.000000 0.333334 0.707083 0.707083 0.000000 8 255 0
1.000000 0.333333 1.000000 0.707083 0.000000 0.707083 8 255 0
1.000000 0.333333 0.333334 1.000000 0.000000 0.000000 8 255 0
-1.000000 0.333333 1.000000 -0.707083 0.000000 0.707083 34 186 29
-0.333334 0.333333 1.000000 0.000000 0.000000 1.000000 34 186 29
-1.000000 0.333333 -0.333334 -1.000000 0.000000 0.000000 34 186 29
-1.000000 1.000000 -1.000000 -0.577349 0.577349 -0.577349 34 186 29
-1.000000 0.333333 -1.000000 -0.707083 0.000000 -0.707083 34 186 29
-0.333333 -0.333333 -1.000000 0.000000 0.000000 -1.000000 34 186 29
-1.000000 -1.000000 -1.000000 -0.577349 -0.577349 -0.577349 34 186 29
-1.000000 -0.333333 -1.000000 -0.707083 0.000000 -0.707083 34 186 29
-0.333333 0.333333 -1.000000 0.000000 0.000000 -1.000000 34 186 29
-0.333333 1.000000 -1.000000 0.000000 0.707083 -0.707083 34 186 29
-0.333333 0.333333 -1.000000 0.000000 0.000000 -1.000000 20 0 255
-1.000000 -0.333333 -1.000000 -0.707083 0.000000 -0.707083 20 0 255
-1.000000 0.333333 -1.000000 -0.707083 0.000000 -0.707083 20 0 255
1.000000 0.333333 -1.000000 0.707083 0.000000 -0.707083 34 186 29
0.333334 1.000000 -1.000000 0.000000 0.707083 -0.707083 34 186 29
1.000000 1.000000 -0.999999 0.577349 0.577349 -0.577349 34 186 29
0.333334 0.333333 -1.000000 0.000000 0.000000 -1.000000 20 0 255
-0.333333 1.000000 -1.000000 0.000000 0.707083 -0.707083 20 0 255
0.333334 1.000000 -1.000000 0.000000 0.707083 -0.707083 20 0 255
1.000000 -0.333333 -1.000000 0.707083 0.000000 -0.707083 20 0 255
1.000000 0.333333 -1.000000 0.707083 0.000000 -0.707083 20 0 255
0.333333 -0.333333 -1.000000 0.000000 0.000000 -1.000000 252 0 21
-0.333333 0.333333 -1.000000 0.000000 0.000000 -1.000000 252 0 21
0.333334 0.333333 -1.000000 0.000000 0.000000 -1.000000 252 0 21
1.000000 -1.000000 -1.000000 0.577349 -0.577349 -0.577349 34 186 29
0.333333 -0.333333 -1.000000 0.000000 0.000000 -1.000000 34 186 29
1.000000 -0.333333 -1.000000 0.707083 0.000000 -0.707083 34 186 29
0.333333 -1.000000 -1.000000 0.000000 -0.707083 -0.707083 20 0 255
-0.333333 -0.333333 -1.000000 0.000000 0.000000 -1.000000 20 0 255
0.333333 -0.333333 -1.000000 0.000000 0.000000 -1.000000 20 0 255
-1.000000 -1.000000 -0.333334 -0.707083 -0.707083 0.000000 34 186 29
-1.000000 -0.333333 -0.333334 -1.000000 0.000000 0.000000 20 0 255
-1.000000 -0.333333 1.000000 -0.707083 0.000000 0.707083 34 186 29
-1.000000 -1.000000 1.000000 -0.577349 -0.577349 0.577349 34 186 29
-1.000000 -1.000000 0.333333 -0.707083 -0.707083 0.000000 20 0 255
-1.000000 -1.000000 -0.333334 -0.707083 -0.707083 0.000000 20 0 255
-1.000000 0.333333 1.000000 -0.707083 0.000000 0.707083 20 0 255
-1.000000 -0.333333 0.333333 -1.000000 0.000000 0.000000 20 0 255
-1.000000 -0.333333 1.000000 -0.707083 0.000000 0.707083 20 0 255
-1.000000 0.333333 0.333333 -1.000000 0.000000 0.000000 252 0 21
-1.000000 -0.333333 -0.333334 -1.000000 0.000000 0.000000 252 0 21
-1.000000 -0.333333 0.333333 -1.000000 0.000000 0.000000 252 0 21
-1.000000 0.333333 0.333333 -1.000000 0.000000 0.000000 34 186 29
-1.000000 0.333333 0.333333 -1.000000 0.000000 0.000000 20 0 255
-1.000000 1.000000 -0.333333 -0.707083 0.707083 0.000000 20 0 255
-1.000000 0.333333 -0.333334 -1.000000 0.000000 0.000000 20 0 255
-0.333334 -0.333333 1.000000 0.000000 0.000000 1.000000 34 186 29
-0.333334 0.333333 1.000000 0.000000 0.000000 1.000000 20 0 255
-0.333334 -0.333333 1.000000 0.000000 0.000000 1.000000 20 0 255
1.000000 -0.333333 1.000000 0.707083 0.000000 0.707083 34 186 29
0.333333 -1.000000 1.000000 0.000000 -0.707083 0.707083 34 186 29
1.000000 -1.000000 1.000000 0.577349 -0.577349 0.577349 34 186 29
0.333333 -0.333333 1.000000 0.000000 0.000000 0.999969 20 0 255
-0.333333 -1.000000 1.000000 0.000000 -0.707083 0.707083 20 0 255
0.333333 -1.000000 1.000000 0.000000 -0.707083 0.707083 20 0 255
1.000000 0.333333 1.000000 0.707083 0.000000 0.707083 20 0 255
1.000000 -0.333333 1.000000 0.707083 0.000000 0.707083 20 0 255
0.333333 0.333333 1.000000 0.000000 0.000000 1.000000 252 0 21
-0.333334 -0.333333 1.000000 0.000000 0.000000 1.000000 252 0 21
0.333333 -0.333333 1.000000 0.000000 0.000000 0.999969 252 0 21
0.999999 1.000000 1.000001 0.577349 0.577349 0.577349 34 186 29
0.333333 0.333333 1.000000 0.000000 0.000000 1.000000 34 186 29
1.000000 0.333333 1.000000 0.707083 0.000000 0.707083 34 186 29
0.333333 1.000000 1.000000 0.000000 0.707083 0.707083 20 0 255
0.333333 0.333333 1.000000 0.000000 0.000000 1.000000 20 0 255
1.000000 -0.333333 0.333334 1.000000 0.000000 0.000000 8 255 0
1.000000 -1.000000 1.000000 0.577349 -0.577349 0.577349 8 255 0
1.000000 -1.000000 0.333333 0.707083 -0.707083 0.000000 8 255 0
1.000000 0.333333 0.333334 1.000000 0.000000 0.000000 20 0 255
1.000000 -0.333333 0.333334 1.000000 0.000000 0.000000 20 0 255
1.000000 -0.333333 -1.000000 0.707083 0.000000 -0.707083 8 255 0
1.000000 -1.000000 -0.333333 0.707083 -0.707083 0.000000 8 255 0
1.000000 -1.000000 -1.000000 0.577349 -0.577349 -0.577349 8 255 0
1.000000 -0.333333 -0.333333 1.000000 0.000000 0.000000 20 0 255
1.000000 -1.000000 0.333333 0.707083 -0.707083 0.000000 20 0 255
1.000000 -1.000000 -0.333333 0.707083 -0.707083 0.000000 20 0 255
1.000000 0.333333 -0.333333 1.000000 0.000000 0.000000 252 0 21
1.000000 -0.333333 0.333334 1.000000 0.000000 0.000000 252 0 21
1.000000 -0.333333 -0.333333 1.000000 0.000000 0.000000 252 0 21
1.000000 1.000000 -0.999999 0.577349 0.577349 -0.577349 8 255 0
1.000000 0.333333 -0.333333 1.000000 0.000000 0.000000 8 255 0
1.000000 0.333333 -1.000000 0.707083 0.000000 -0.707083 8 255 0
1.000000 1.000000 -0.333333 0.707083 0.707083 0.000000 20 0 255
1.000000 0.333333 -0.333333 1.000000 0.000000 0.000000 20 0 255
0.333333 1.000000 0.333334 0.000000 1.000000 0.000000 34 186 29
1.000000 1.000000 0.333334 0.707083 0.707083 0.000000 34 186 29
-0.333334 1.000000 0.333333 0.000000 1.000000 0.000000 20 0 255
0.333333 1.000000 0.333334 0.000000 1.000000 0.000000 20 0 255
1.000000 1.000000 -0.333333 0.707083 0.707083 0.000000 34 186 29
0.333333 1.000000 -0.333333 0.000000 1.000000 0.000000 20 0 255
1.000000 1.000000 0.333334 0.707083 0.707083 0.000000 20 0 255
-0.333333 1.000000 -0.333333 0.000000 1.000000 0.000000 252 0 21
0.333333 1.000000 0.333334 0.000000 1.000000 0.000000 252 0 21
0.333333 1.000000 -0.333333 0.000000 1.000000 0.000000 252 0 21
-1.000000 1.000000 -0.333333 -0.707083 0.707083 0.000000 34 186 29
-0.333333 1.000000 -0.333333 0.000000 1.000000 0.000000 34 186 29
-0.333333 1.000000 -0.333333 0.000000 1.000000 0.000000 20 0 255
-1.000000 1.000000 0.333333 -0.707083 0.707083 0.000000 20 0 255
-0.333333 -1.000000 -0.333334 0.000000 -1.000000 0.000000 34 186 29
-0.333333 -1.000000 -1.000000 0.000000 -0.707083 -0.707083 34 186 29
-0.333333 -1.000000 0.333333 0.000000 -1.000000 0.000000 20 0 255
-0.333333 -1.000000 -0.333334 0.000000 -1.000000 0.000000 20 0 255
0.333333 -1.000000 -0.333333 0.000000 -1.000000 0.000000 34 186 29
0.333333 -1.000000 -1.000000 0.000000 -0.707083 -0.707083 34 186 29
-0.333333 -1.000000 -1.000000 0.000000 -0.707083 -0.707083 20 0 255
0.333333 -1.000000 0.333333 0.000000 -1.000000 0.000000 20 0 255
0.333333 -1.000000 -0.333333 0.000000 -1.000000 0.000000 20 0 255
0.333333 -1.000000 -0.333333 0.000000 -1.000000 0.000000 252 0 21
-0.333333 -1.000000 0.333333 0.000000 -1.000000 0.000000 252 0 21
-0.333333 -1.000000 -0.333334 0.000000 -1.000000 0.000000 252 0 21
1.000000 -1.000000 0.333333 0.707083 -0.707083 0.000000 34 186 29
0.333333 -1.000000 0.333333 0.000000 -1.000000 0.000000 34 186 29
-1.000000 1.000000 0.333333 -0.707083 0.707083 0.000000 34 186 29
0.999999 1.000000 1.000001 0.577349 0.577349 0.577349 8 255 0
0.333334 0.333333 -1.000000 0.000000 0.000000 -1.000000 34 186 29
-0.333333 -0.333333 -1.000000 0.000000 0.000000 -1.000000 252 0 21
-1.000000 -0.333333 -0.333334 -1.000000 0.000000 0.000000 34 186 29
-1.000000 -0.333333 0.333333 -1.000000 0.000000 0.000000 34 186 29
-1.000000 0.333333 -0.333334 -1.000000 0.000000 0.000000 252 0 21
0.333333 -0.333333 1.000000 0.000000 0.000000 0.999969 34 186 29
-0.333334 0.333333 1.000000 0.000000 0.000000 1.000000 252 0 21
0.333333 1.000000 1.000000 0.000000 0.707083 0.707083 34 186 29
-0.333334 1.000000 1.000000 0.000000 0.707083 0.707083 20 0 255
1.000000 -0.333333 1.000000 0.707083 0.000000 0.707083 8 255 0
1.000000 -0.333333 -0.333333 1.000000 0.000000 0.000000 8 255 0
1.000000 0.333333 0.333334 1.000000 0.000000 0.000000 252 0 21
1.000000 1.000000 -0.333333 0.707083 0.707083 0.000000 8 255 0
0.333333 1.000000 -0.333333 0.000000 1.000000 0.000000 34 186 29
-0.333334 1.000000 0.333333 0.000000 1.000000 0.000000 252 0 21
1.000000 -1.000000 -0.333333 0.707083 -0.707083 0.000000 34 186 29
0.333333 -1.000000 0.333333 0.000000 -1.000000 0.000000 252 0 21
3 0 1 2
3 3 4 5
3 6 7 8
3 5 9 10
3 11 12 13
3 14 15 16
3 17 12 18
3 19 20 21
3 22 23 24
3 25 26 27
3 28 25 29
3 30 31 32
3 33 34 35
3 36 37 38
3 39 16 15
3 40 21 20
3 41 1 42
3 43 40 44
3 45 46 47
3 48 49 50
3 4 51 9
3 52 53 54
3 55 42 0
3 56 47 57
3 58 59 60
3 61 62 63
3 64 61 65
3 66 67 68
3 69 70 71
3 72 56 73
3 74 75 76
3 77 65 78
3 79 80 81
3 82 83 84
3 29 82 28
3 85 86 87
3 88 89 90
3 91 77 92
3 93 69 94
3 95 72 96
3 23 97 24
3 98 99 91
3 26 98 27
3 100 101 102
3 18 103 104
3 105 106 95
3 107 15 108
3 109 44 110
3 33 111 112
3 36 110 113
3 84 114 115
3 116 117 118
3 119 59 120
3 63 109 114
3 0 42 1
3 3 121 4
3 6 122 7
3 5 4 9
3 11 103 12
3 14 108 15
3 17 13 12
3 19 37 20
3 22 123 23
3 25 19 26
3 28 38 25
3 30 124 31
3 33 112 34
3 36 113 37
3 39 125 16
3 40 54 21
3 41 126 1
3 43 46 40
3 45 52 46
3 48 127 49
3 4 121 51
3 52 106 53
3 55 41 42
3 56 45 47
3 58 128 59
3 61 57 62
3 64 73 61
3 66 129 67
3 69 130 70
3 72 131 56
3 74 132 75
3 77 64 65
3 79 133 80
3 82 78 83
3 29 92 82
3 85 134 86
3 88 135 89
3 91 99 77
3 93 130 69
3 95 131 72
3 23 136 97
3 98 96 99
3 26 105 98
3 100 137 101
3 18 12 103
3 105 53 106
3 107 39 15
3 109 43 44
3 33 138 111
3 36 115 110
3 84 83 114
3 116 139 117
3 119 60 59
3 63 62 109
